<?xml version="1.0" standalone="no"?>
<!DOCTYPE svg PUBLIC "-//W3C//DTD SVG 20010904//EN"
 "http://www.w3.org/TR/2001/REC-SVG-20010904/DTD/svg10.dtd">
<svg version="1.0" xmlns="http://www.w3.org/2000/svg"
 width="399.000000pt" height="399.000000pt" viewBox="0 0 399.000000 399.000000"
 preserveAspectRatio="xMidYMid meet">
<metadata>
Created by potrace 1.14, written by Peter Selinger 2001-2017
</metadata>
<g transform="translate(0.000000,399.000000) scale(0.100000,-0.100000)"
fill="#000000" stroke="none">
<path d="M2415 3529 c-22 -5 -89 -20 -150 -34 -102 -23 -455 -88 -535 -98 -19
-3 -64 -10 -100 -16 -76 -12 -113 -17 -195 -26 -32 -4 -66 -8 -75 -10 -9 -2
-56 -6 -106 -10 -49 -4 -100 -8 -114 -10 -30 -4 -120 -15 -175 -20 -49 -5
-243 -14 -424 -20 -93 -3 -140 -8 -155 -18 -12 -8 -49 -57 -82 -108 -32 -50
-85 -120 -116 -154 -32 -34 -58 -70 -58 -79 0 -23 71 -298 110 -430 52 -171
110 -357 137 -436 32 -96 153 -519 153 -535 0 -7 7 -35 15 -61 8 -27 42 -161
75 -299 74 -306 74 -303 105 -445 52 -232 69 -292 82 -297 7 -3 13 -11 13 -18
0 -9 10 -10 37 -5 21 5 63 13 93 19 30 6 100 20 155 31 147 30 405 80 445 86
19 4 50 12 69 20 18 8 37 12 41 9 4 -2 41 2 81 9 41 8 92 17 114 21 22 3 60
10 85 15 25 4 97 18 160 29 63 12 122 23 130 26 8 2 49 6 90 10 95 7 188 16
220 20 66 9 133 15 215 20 305 18 353 45 485 275 23 41 49 80 57 87 43 34 4
112 -127 255 -38 42 -70 78 -70 81 0 7 439 127 590 162 161 36 195 49 198 73
3 17 -2 22 -18 22 -28 0 -35 24 -16 52 9 12 16 26 16 30 0 24 -205 239 -364
382 -92 82 -256 243 -312 306 -57 64 -184 244 -249 351 -6 9 -16 23 -21 30 -6
8 -25 39 -41 69 -17 30 -65 114 -108 185 -43 72 -83 139 -89 150 -6 11 -19 31
-27 45 -9 14 -43 65 -74 115 -32 49 -64 95 -71 102 -7 7 -16 22 -19 33 -7 22
-18 23 -80 9z"/>
</g>
</svg>
